<svg width="160" height="160" viewBox="0 0 160 160" fill="none" xmlns="http://www.w3.org/2000/svg">
<rect x="47" y="74" width="11" height="75" fill="white"/>
<rect x="101" y="74" width="11" height="75" fill="white"/>
<circle cx="80" cy="80" r="73" stroke="white" stroke-width="6"/>
<mask id="path-4-inside-1_3913_380" fill="white">
<path d="M119.855 75.8118H40.1514L38.7117 69.1577H49.8028V62.0249H52.0685C52.8772 62.0251 53.6779 62.2096 54.4249 62.568C55.172 62.9262 55.8506 63.451 56.4222 64.1126C56.9939 64.7742 57.4471 65.5594 57.7564 66.4236C58.0655 67.2877 58.2246 68.2139 58.2241 69.1492H75.6905V59.65H33.3769C32.551 52.0466 28.6486 46.1081 28.6486 46.1081C40.1514 47.5 80.0023 49.4322 80.0023 49.4322C80.0023 49.4322 119.853 49.1927 131.351 46.1081C131.351 46.1081 127.457 52.0466 126.63 59.65H84.319V69.1519H101.785C101.785 68.2162 101.945 67.2896 102.255 66.425C102.564 65.5604 103.018 64.7748 103.591 64.1132C104.163 63.4518 104.843 62.9271 105.59 62.5691C106.338 62.2113 107.139 62.0273 107.949 62.0276H110.209V69.1519H121.305L119.855 75.8118Z"/>
</mask>
<path d="M43.1216 142.649C43.1216 144.582 44.6886 146.149 46.6216 146.149C48.5546 146.149 50.1216 144.582 50.1216 142.649H43.1216ZM50.1216 75.8118C50.1216 73.8788 48.5546 72.3118 46.6216 72.3118C44.6886 72.3118 43.1216 73.8788 43.1216 75.8118H50.1216ZM63.2586 75.8118C63.2586 73.8788 61.6916 72.3118 59.7586 72.3118C57.8256 72.3118 56.2586 73.8788 56.2586 75.8118H63.2586ZM56.2586 148.811C56.2586 150.744 57.8256 152.311 59.7586 152.311C61.6916 152.311 63.2586 150.744 63.2586 148.811H56.2586ZM92.9324 148.811C92.9324 150.744 94.4994 152.311 96.4324 152.311C98.3654 152.311 99.9324 150.744 99.9324 148.811H92.9324ZM99.9324 75.8118C99.9324 73.8788 98.3654 72.3118 96.4324 72.3118C94.4994 72.3118 92.9324 73.8788 92.9324 75.8118H99.9324ZM113.709 75.8123C113.71 73.8793 112.143 72.3121 110.21 72.3118C108.277 72.3115 106.71 73.8783 106.709 75.8113L113.709 75.8123ZM106.699 144.811C106.699 146.744 108.266 148.311 110.199 148.311C112.132 148.311 113.699 146.745 113.699 144.812L106.699 144.811ZM50.1216 142.649V75.8118H43.1216V142.649H50.1216ZM56.2586 75.8118V148.811H63.2586V75.8118H56.2586ZM99.9324 148.811V75.8118H92.9324V148.811H99.9324ZM106.709 75.8113L106.699 144.811L113.699 144.812L113.709 75.8123L106.709 75.8113ZM119.855 75.8118V82.8118C123.147 82.8118 125.995 80.5176 126.695 77.3007L119.855 75.8118ZM40.1514 75.8118L33.3097 77.2921C34.0066 80.5131 36.8558 82.8118 40.1514 82.8118V75.8118ZM38.7117 69.1577V62.1577C36.5953 62.1577 34.5926 63.1152 33.2637 64.7624C31.9348 66.4095 31.4225 68.5695 31.87 70.638L38.7117 69.1577ZM49.8028 69.1577V76.1577C53.6688 76.1577 56.8028 73.0237 56.8028 69.1577H49.8028ZM49.8028 62.0249V55.0249C45.9368 55.0249 42.8028 58.1589 42.8028 62.0249H49.8028ZM52.0685 62.0249L52.0707 55.0249H52.0685V62.0249ZM54.4249 62.568L51.3972 68.8793L51.3984 68.8799L54.4249 62.568ZM56.4222 64.1126L51.1251 68.6888L51.126 68.6898L56.4222 64.1126ZM57.7564 66.4236L64.3473 64.0659L64.3472 64.0654L57.7564 66.4236ZM58.2241 69.1492L51.2241 69.1459C51.2233 71.003 51.9604 72.7843 53.2732 74.0978C54.5861 75.4112 56.3671 76.1492 58.2241 76.1492V69.1492ZM75.6905 69.1492V76.1492C79.5565 76.1492 82.6905 73.0152 82.6905 69.1492H75.6905ZM75.6905 59.65H82.6905C82.6905 55.784 79.5565 52.65 75.6905 52.65V59.65ZM33.3769 59.65L26.4179 60.4059C26.8038 63.9584 29.8035 66.65 33.3769 66.65V59.65ZM28.6486 46.1081L29.4895 39.1588C26.7842 38.8314 24.1348 40.1038 22.699 42.42C21.2633 44.7361 21.3021 47.6749 22.7987 49.9523L28.6486 46.1081ZM80.0023 49.4322L79.6633 56.424C79.7902 56.4302 79.9173 56.4329 80.0444 56.4321L80.0023 49.4322ZM131.351 46.1081L137.205 49.947C138.797 47.5185 138.725 44.3587 137.023 42.0056C135.321 39.6524 132.343 38.5946 129.538 39.3472L131.351 46.1081ZM126.63 59.65V66.65C130.203 66.65 133.203 63.9588 133.589 60.4065L126.63 59.65ZM84.319 59.65V52.65C80.453 52.65 77.319 55.784 77.319 59.65H84.319ZM84.319 69.1519H77.319C77.319 73.0179 80.453 76.1519 84.319 76.1519V69.1519ZM101.785 69.1519V76.1519C105.651 76.1519 108.785 73.0179 108.785 69.1519H101.785ZM103.591 64.1132L108.884 68.6939L108.884 68.6934L103.591 64.1132ZM105.59 62.5691L102.568 56.255L102.568 56.2553L105.59 62.5691ZM107.949 62.0276L107.945 69.0276H107.949V62.0276ZM110.209 62.0276H117.209C117.209 58.1616 114.075 55.0276 110.209 55.0276V62.0276ZM110.209 69.1519H103.209C103.209 73.0179 106.343 76.1519 110.209 76.1519V69.1519ZM121.305 69.1519L128.145 70.6409C128.595 68.5714 128.085 66.4093 126.756 64.7601C125.427 63.1109 123.423 62.1519 121.305 62.1519V69.1519ZM119.855 68.8118H40.1514V82.8118H119.855V68.8118ZM46.9931 74.3315L45.5534 67.6774L31.87 70.638L33.3097 77.2921L46.9931 74.3315ZM38.7117 76.1577H49.8028V62.1577H38.7117V76.1577ZM56.8028 69.1577V62.0249H42.8028V69.1577H56.8028ZM49.8028 69.0249H52.0685V55.0249H49.8028V69.0249ZM52.0664 69.0249C51.8019 69.0248 51.5709 68.9627 51.3972 68.8793L57.4525 56.2566C55.7848 55.4566 53.9525 55.0255 52.0707 55.0249L52.0664 69.0249ZM51.3984 68.8799C51.2298 68.7991 51.1476 68.7148 51.1251 68.6888L61.7192 59.5365C60.5536 58.1872 59.1141 57.0533 57.4513 56.256L51.3984 68.8799ZM51.126 68.6898C51.1145 68.6765 51.1162 68.6759 51.1254 68.6918C51.1346 68.7077 51.1496 68.7373 51.1655 68.7818L64.3472 64.0654C63.7619 62.4297 62.8831 60.8832 61.7184 59.5355L51.126 68.6898ZM51.1654 68.7814C51.1986 68.8743 51.2242 69.0008 51.2241 69.1459L65.2241 69.1524C65.2249 67.427 64.9323 65.7011 64.3473 64.0659L51.1654 68.7814ZM58.2241 76.1492H75.6905V62.1492H58.2241V76.1492ZM82.6905 69.1492V59.65H68.6905V69.1492H82.6905ZM75.6905 52.65H33.3769V66.65H75.6905V52.65ZM40.336 58.894C39.8211 54.1542 38.3686 50.0487 37.1031 47.1923C36.4619 45.7452 35.8462 44.5682 35.3771 43.7314C35.1418 43.3119 34.9415 42.9744 34.7907 42.7277C34.7153 42.6042 34.652 42.5032 34.6028 42.4256C34.5782 42.3868 34.557 42.3538 34.5396 42.3268C34.5309 42.3134 34.5231 42.3013 34.5162 42.2909C34.5128 42.2856 34.5096 42.2807 34.5067 42.2762C34.5052 42.274 34.5038 42.2718 34.5025 42.2698C34.5018 42.2688 34.5008 42.2673 34.5005 42.2668C34.4995 42.2653 34.4986 42.2639 28.6486 46.1081C22.7987 49.9523 22.7977 49.9509 22.7969 49.9496C22.7966 49.9491 22.7957 49.9478 22.7951 49.947C22.794 49.9453 22.793 49.9436 22.792 49.9421C22.79 49.9391 22.7882 49.9364 22.7867 49.934C22.7836 49.9293 22.7814 49.9259 22.7801 49.9239C22.7775 49.9198 22.7784 49.9211 22.7825 49.9277C22.7908 49.9408 22.8122 49.9748 22.8451 50.0285C22.9109 50.1363 23.022 50.3222 23.1655 50.5781C23.4538 51.0924 23.8654 51.8753 24.3031 52.8633C25.1952 54.8769 26.1068 57.5423 26.4179 60.4059L40.336 58.894ZM27.8077 53.0574C33.8265 53.7857 46.9156 54.6281 58.2362 55.2805C63.954 55.61 69.309 55.8958 73.2337 56.0992C75.1964 56.2009 76.8024 56.282 77.9183 56.3378C78.4762 56.3656 78.9118 56.3872 79.2081 56.4017C79.3563 56.409 79.4697 56.4146 79.5463 56.4183C79.5846 56.4202 79.6136 56.4216 79.6332 56.4225C79.643 56.423 79.6504 56.4234 79.6555 56.4236C79.658 56.4237 79.6599 56.4238 79.6612 56.4239C79.6619 56.4239 79.6624 56.424 79.6627 56.424C79.6631 56.424 79.6633 56.424 80.0023 49.4322C80.3413 42.4404 80.3412 42.4404 80.341 42.4404C80.3407 42.4404 80.3403 42.4404 80.3398 42.4404C80.3387 42.4403 80.3369 42.4402 80.3346 42.4401C80.33 42.4399 80.3229 42.4395 80.3135 42.4391C80.2947 42.4382 80.2665 42.4368 80.229 42.435C80.154 42.4313 80.0423 42.4258 79.8958 42.4186C79.6028 42.4042 79.1709 42.3829 78.6167 42.3552C77.5083 42.2998 75.9111 42.2191 73.9581 42.1179C70.0513 41.9155 64.7246 41.6312 59.0418 41.3037C47.5613 40.6421 34.9735 39.8224 29.4895 39.1588L27.8077 53.0574ZM80.0023 49.4322C80.0444 56.4321 80.0448 56.4321 80.0453 56.4321C80.0457 56.4321 80.0465 56.4321 80.0472 56.4321C80.0488 56.4321 80.051 56.432 80.0537 56.432C80.0593 56.432 80.0672 56.4319 80.0775 56.4319C80.0981 56.4317 80.1282 56.4315 80.1675 56.4313C80.2462 56.4307 80.3618 56.4298 80.5122 56.4285C80.813 56.426 81.2533 56.4218 81.8162 56.4155C82.942 56.4027 84.5594 56.3811 86.5349 56.3455C90.483 56.2742 95.8751 56.1468 101.638 55.9216C107.391 55.6968 113.569 55.3726 119.072 54.9035C124.424 54.4474 129.628 53.8179 133.165 52.869L129.538 39.3472C127.325 39.9406 123.236 40.4978 117.883 40.9541C112.68 41.3975 106.739 41.7116 101.092 41.9322C95.4548 42.1525 90.1656 42.2777 86.2824 42.3477C84.3422 42.3827 82.7564 42.4039 81.658 42.4163C81.1088 42.4226 80.6816 42.4266 80.3931 42.429C80.2488 42.4303 80.1393 42.4311 80.0664 42.4316C80.03 42.4319 80.0028 42.4321 79.985 42.4322C79.9761 42.4322 79.9696 42.4323 79.9654 42.4323C79.9634 42.4323 79.9619 42.4323 79.961 42.4323C79.9606 42.4323 79.9604 42.4323 79.9602 42.4323C79.9601 42.4323 79.9602 42.4323 80.0023 49.4322ZM131.351 46.1081C125.498 42.2691 125.497 42.2706 125.496 42.272C125.496 42.2725 125.495 42.274 125.494 42.275C125.493 42.2771 125.491 42.2792 125.49 42.2815C125.487 42.286 125.484 42.2908 125.48 42.2961C125.473 42.3066 125.466 42.3186 125.457 42.3321C125.44 42.359 125.419 42.392 125.394 42.4308C125.345 42.5083 125.282 42.6093 125.206 42.7328C125.056 42.9795 124.856 43.3168 124.621 43.7363C124.153 44.5729 123.539 45.7495 122.899 47.1963C121.636 50.0521 120.186 54.156 119.671 58.8934L133.589 60.4065C133.901 57.5406 134.811 54.8735 135.702 52.8592C136.14 51.8709 136.55 51.0877 136.838 50.5733C136.982 50.3172 137.093 50.1312 137.158 50.0234C137.191 49.9696 137.212 49.9357 137.221 49.9225C137.225 49.9159 137.226 49.9146 137.223 49.9187C137.222 49.9207 137.22 49.924 137.217 49.9288C137.215 49.9311 137.213 49.9338 137.211 49.9369C137.21 49.9384 137.209 49.94 137.208 49.9417C137.208 49.9426 137.207 49.9439 137.207 49.9443C137.206 49.9457 137.205 49.947 131.351 46.1081ZM126.63 52.65H84.319V66.65H126.63V52.65ZM77.319 59.65V69.1519H91.319V59.65H77.319ZM84.319 76.1519H101.785V62.1519H84.319V76.1519ZM108.785 69.1519C108.785 69.0055 108.811 68.8786 108.844 68.7859L95.6647 64.0641C95.0784 65.7006 94.7854 67.4269 94.7854 69.1519H108.785ZM108.844 68.7859C108.86 68.7415 108.875 68.7119 108.885 68.6959C108.894 68.6799 108.896 68.6806 108.884 68.6939L98.2976 59.5326C97.1313 60.8804 96.251 62.4276 95.6647 64.0641L108.844 68.7859ZM108.884 68.6934C108.862 68.7188 108.781 68.8025 108.613 68.8829L102.568 56.2553C100.904 57.0516 99.4638 58.1847 98.2972 59.5331L108.884 68.6934ZM108.612 68.8832C108.439 68.966 108.209 69.0278 107.945 69.0276L107.952 55.0276C106.07 55.0268 104.237 55.4565 102.568 56.255L108.612 68.8832ZM107.949 69.0276H110.209V55.0276H107.949V69.0276ZM103.209 62.0276V69.1519H117.209V62.0276H103.209ZM110.209 76.1519H121.305V62.1519H110.209V76.1519ZM114.465 67.663L113.015 74.3228L126.695 77.3007L128.145 70.6409L114.465 67.663Z" fill="white" mask="url(#path-4-inside-1_3913_380)"/>
</svg>
